<svg width="42" height="42" viewBox="0 0 42 42" fill="none" xmlns="http://www.w3.org/2000/svg">
<path d="M21.5519 20.51C22.4869 19.7017 23.2369 18.702 23.7509 17.5788C24.2649 16.4555 24.5309 15.235 24.5309 14C24.5309 11.6794 23.6078 9.45376 21.9646 7.81282C20.3215 6.17187 18.0928 5.25 15.769 5.25C13.4452 5.25 11.2166 6.17187 9.57344 7.81282C7.93026 9.45376 7.00714 11.6794 7.00714 14C7.00712 15.235 7.27315 16.4555 7.78717 17.5788C8.30118 18.702 9.05115 19.7017 9.98618 20.51C7.5331 21.6193 5.45184 23.4107 3.99126 25.67C2.53068 27.9292 1.75258 30.5608 1.75 33.25C1.75 33.7141 1.93463 34.1593 2.26326 34.4874C2.59189 34.8156 3.03762 35 3.50238 35C3.96714 35 4.41286 34.8156 4.7415 34.4874C5.07013 34.1593 5.25476 33.7141 5.25476 33.25C5.25476 30.4652 6.36251 27.7945 8.33432 25.8254C10.3061 23.8562 12.9805 22.75 15.769 22.75C18.5576 22.75 21.2319 23.8562 23.2038 25.8254C25.1756 27.7945 26.2833 30.4652 26.2833 33.25C26.2833 33.7141 26.4679 34.1593 26.7966 34.4874C27.1252 34.8156 27.5709 35 28.0357 35C28.5005 35 28.9462 34.8156 29.2748 34.4874C29.6034 34.1593 29.7881 33.7141 29.7881 33.25C29.7855 30.5608 29.0074 27.9292 27.5468 25.67C26.0862 23.4107 24.005 21.6193 21.5519 20.51ZM15.769 19.25C14.7293 19.25 13.7129 18.9421 12.8483 18.3652C11.9838 17.7883 11.31 16.9684 10.9121 16.0091C10.5142 15.0498 10.4101 13.9942 10.6129 12.9758C10.8158 11.9574 11.3165 11.0219 12.0517 10.2877C12.7869 9.55346 13.7236 9.05345 14.7434 8.85088C15.7632 8.64831 16.8202 8.75227 17.7809 9.14963C18.7415 9.54699 19.5625 10.2199 20.1402 11.0833C20.7178 11.9466 21.0262 12.9616 21.0262 14C21.0262 15.3924 20.4723 16.7277 19.4864 17.7123C18.5005 18.6969 17.1633 19.25 15.769 19.25ZM32.8372 19.81C33.9587 18.5488 34.6912 16.9908 34.9467 15.3236C35.2022 13.6563 34.9697 11.9509 34.2773 10.4125C33.5848 8.87412 32.4618 7.56839 31.0436 6.65249C29.6254 5.73659 27.9723 5.24955 26.2833 5.25C25.8186 5.25 25.3728 5.43437 25.0442 5.76256C24.7156 6.09075 24.5309 6.53587 24.5309 7C24.5309 7.46413 24.7156 7.90925 25.0442 8.23744C25.3728 8.56563 25.8186 8.75 26.2833 8.75C27.6776 8.75 29.0148 9.30312 30.0007 10.2877C30.9866 11.2723 31.5405 12.6076 31.5405 14C31.538 14.9192 31.2939 15.8216 30.8326 16.617C30.3713 17.4124 29.709 18.0729 28.9119 18.5325C28.6521 18.6822 28.4351 18.8959 28.2817 19.1533C28.1283 19.4107 28.0436 19.7031 28.0357 20.0025C28.0284 20.2996 28.0969 20.5936 28.2349 20.857C28.3728 21.1203 28.5757 21.3441 28.8243 21.5075L29.5077 21.9625L29.7355 22.085C31.8478 23.0855 33.6298 24.668 34.8717 26.646C36.1135 28.6241 36.7635 30.9154 36.745 33.25C36.745 33.7141 36.9296 34.1593 37.2583 34.4874C37.5869 34.8156 38.0326 35 38.4974 35C38.9622 35 39.4079 34.8156 39.7365 34.4874C40.0652 34.1593 40.2498 33.7141 40.2498 33.25C40.2641 30.5645 39.5906 27.9199 38.2932 25.5676C36.9958 23.2153 35.1177 21.2333 32.8372 19.81Z" fill="#3783F5"/>
</svg>
