<svg width="42" height="42" viewBox="0 0 42 42" fill="none" xmlns="http://www.w3.org/2000/svg">
<path d="M11.4031 25.0637L8.79558 36.3525C8.71483 36.6943 8.73907 37.0526 8.86513 37.3804C8.99119 37.7082 9.2132 37.9905 9.50218 38.1902C9.79115 38.3899 10.1337 38.4979 10.485 38.5C10.8363 38.5021 11.18 38.3982 11.4713 38.2019L21.0001 31.8506L30.529 38.2019C30.827 38.3998 31.1786 38.5016 31.5363 38.4938C31.894 38.4859 32.2408 38.3688 32.5299 38.158C32.819 37.9473 33.0367 37.6531 33.1536 37.3149C33.2704 36.9768 33.281 36.611 33.1837 36.2668L29.9829 25.0689L37.921 17.9268C38.1752 17.6979 38.3568 17.3996 38.4432 17.0686C38.5297 16.7377 38.5172 16.3886 38.4073 16.0647C38.2975 15.7408 38.095 15.4561 37.8251 15.246C37.5552 15.0359 37.2295 14.9094 36.8885 14.8824L26.9117 14.088L22.5944 4.53312C22.4567 4.22545 22.233 3.96419 21.9501 3.78087C21.6672 3.59755 21.3373 3.5 21.0001 3.5C20.663 3.5 20.3331 3.59755 20.0502 3.78087C19.7673 3.96419 19.5435 4.22545 19.4059 4.53312L15.0886 14.088L5.11181 14.8806C4.7766 14.9072 4.45614 15.0297 4.18877 15.2336C3.9214 15.4375 3.71843 15.714 3.60416 16.0302C3.48988 16.3464 3.46914 16.6888 3.5444 17.0164C3.61966 17.3441 3.78775 17.6431 4.02855 17.8778L11.4031 25.0637V25.0637ZM16.3959 17.4946C16.7082 17.47 17.0082 17.3619 17.2644 17.1815C17.5206 17.0011 17.7235 16.7551 17.8519 16.4693L21.0001 9.50391L24.1484 16.4693C24.2768 16.7551 24.4797 17.0011 24.7359 17.1815C24.9921 17.3619 25.2921 17.47 25.6044 17.4946L32.5555 18.0458L26.8312 23.1968C26.3342 23.6447 26.1364 24.3341 26.3184 24.9779L28.5112 32.6502L21.9732 28.2918C21.6862 28.0992 21.3484 27.9964 21.0028 27.9964C20.6572 27.9964 20.3194 28.0992 20.0324 28.2918L13.2004 32.8462L15.0379 24.8922C15.1052 24.5997 15.0962 24.2947 15.0116 24.0067C14.927 23.7186 14.7697 23.4572 14.5549 23.2475L9.23833 18.065L16.3959 17.4946V17.4946Z" fill="#B6B951"/>
</svg>
