<svg width="42" height="42" viewBox="0 0 42 42" fill="none" xmlns="http://www.w3.org/2000/svg">
<path d="M36.75 8.75C36.75 6.81975 35.1803 5.25 33.25 5.25H8.75C6.81975 5.25 5.25 6.81975 5.25 8.75V33.25C5.25 35.1803 6.81975 36.75 8.75 36.75H33.25C35.1803 36.75 36.75 35.1803 36.75 33.25V8.75ZM8.75 33.25V8.75H33.25L33.2535 33.25H8.75Z" fill="#06A689"/>
<path d="M12.25 12.25H15.7465V15.75H12.25V12.25ZM19.25 12.25H29.75V15.75H19.25V12.25ZM12.25 19.25H15.7465V22.75H12.25V19.25ZM19.25 19.25H29.75V22.75H19.25V19.25ZM12.25 26.25H15.7465V29.75H12.25V26.25ZM19.25 26.25H29.75V29.75H19.25V26.25Z" fill="#06A689"/>
</svg>
