<svg width="24" height="24" viewBox="0 0 24 24" fill="none" xmlns="http://www.w3.org/2000/svg">
<path d="M23.7389 19.1518L13.6675 1.94977C12.9262 0.683641 11.0741 0.683178 10.3325 1.94977L0.261022 19.1518C-0.480259 20.418 0.445428 22 1.92855 22H22.0714C23.554 22 24.4805 20.4184 23.7389 19.1518ZM22.0714 20.26H1.92855C1.8034 20.26 1.72638 20.1289 1.7891 20.0218L11.8605 2.81976C11.9231 2.71284 12.0767 2.71261 12.1394 2.81976L22.2108 20.0218C22.2734 20.1287 22.1969 20.26 22.0714 20.26Z" fill="#DE2B13"/>
<path d="M12 8C11.4477 8 11 8.40533 11 8.90528V14.0947C11 14.5947 11.4477 15 12 15C12.5523 15 13 14.5947 13 14.0947V8.90528C13.0001 8.40533 12.5523 8 12 8Z" fill="#DE2B13"/>
<path d="M12 16C11.4477 16 11 16.3448 11 16.7701V17.2299C11 17.6552 11.4477 18 12 18C12.5523 18 13 17.6552 13 17.2299V16.7701C13.0001 16.3447 12.5523 16 12 16Z" fill="#DE2B13"/>
</svg>
