<svg width="22" height="22" viewBox="0 0 22 22" fill="none" xmlns="http://www.w3.org/2000/svg">
<path d="M14.6667 1.83333H7.33334C4.30009 1.83333 1.83334 4.30008 1.83334 7.33333V18.3333C1.83334 18.5764 1.92992 18.8096 2.10183 18.9815C2.27374 19.1534 2.5069 19.25 2.75001 19.25H14.6667C17.6999 19.25 20.1667 16.7832 20.1667 13.75V7.33333C20.1667 4.30008 17.6999 1.83333 14.6667 1.83333ZM18.3333 13.75C18.3333 15.7722 16.6888 17.4167 14.6667 17.4167H3.66668V7.33333C3.66668 5.31116 5.31118 3.66666 7.33334 3.66666H14.6667C16.6888 3.66666 18.3333 5.31116 18.3333 7.33333V13.75Z" fill="#3783F5"/>
<path d="M8.70834 11.9167C9.46773 11.9167 10.0833 11.3011 10.0833 10.5417C10.0833 9.78228 9.46773 9.16667 8.70834 9.16667C7.94895 9.16667 7.33334 9.78228 7.33334 10.5417C7.33334 11.3011 7.94895 11.9167 8.70834 11.9167Z" fill="#3783F5"/>
<path d="M13.2917 11.9167C14.051 11.9167 14.6667 11.3011 14.6667 10.5417C14.6667 9.78228 14.051 9.16667 13.2917 9.16667C12.5323 9.16667 11.9167 9.78228 11.9167 10.5417C11.9167 11.3011 12.5323 11.9167 13.2917 11.9167Z" fill="#3783F5"/>
</svg>
