<svg width="18" height="18" viewBox="0 0 18 18" fill="none" xmlns="http://www.w3.org/2000/svg">
<g id="close">
<g id="Vector">
<path d="M11.2163 5.30602C11.6243 4.89799 12.2859 4.89799 12.6939 5.30602C13.1019 5.71404 13.1019 6.37558 12.6939 6.78361L6.78359 12.694C6.37557 13.102 5.71404 13.102 5.30602 12.694C4.89799 12.2859 4.89799 11.6244 5.30602 11.2164L11.2163 5.30602Z" fill="white"/>
<path d="M12.694 11.2164C13.102 11.6244 13.102 12.286 12.694 12.694C12.286 13.102 11.6244 13.102 11.2164 12.694L5.30611 6.78362C4.89809 6.37559 4.89809 5.71405 5.30611 5.30603C5.71413 4.898 6.37567 4.898 6.78369 5.30603L12.694 11.2164Z" fill="white"/>
</g>
</g>
</svg>
