<svg width="8" height="8" viewBox="0 0 8 8" fill="none" xmlns="http://www.w3.org/2000/svg">
<path d="M6.21631 0.306019C6.62433 -0.102006 7.28587 -0.102006 7.69389 0.306019C8.10191 0.714044 8.10191 1.37558 7.69389 1.78361L1.78359 7.69397C1.37557 8.102 0.714037 8.102 0.306016 7.69397C-0.102005 7.28595 -0.102005 6.62441 0.306016 6.21638L6.21631 0.306019Z" fill="white"/>
<path d="M7.69398 6.21639C8.10201 6.62442 8.10201 7.28596 7.69398 7.69398C7.28596 8.10201 6.62443 8.10201 6.21641 7.69398L0.306113 1.78362C-0.101907 1.37559 -0.101907 0.714052 0.306114 0.306026C0.714134 -0.101999 1.37567 -0.101999 1.78369 0.306026L7.69398 6.21639Z" fill="white"/>
</svg>
