<svg width="22" height="22" viewBox="0 0 22 22" fill="none" xmlns="http://www.w3.org/2000/svg">
<path d="M13.75 3.66666H5.49999V18.3333H16.5V6.41666H13.75V3.66666ZM5.49999 1.83333H14.6667L18.3333 5.49999V18.3333C18.3333 18.8196 18.1402 19.2859 17.7964 19.6297C17.4525 19.9735 16.9862 20.1667 16.5 20.1667H5.49999C5.01376 20.1667 4.54744 19.9735 4.20363 19.6297C3.85981 19.2859 3.66666 18.8196 3.66666 18.3333V3.66666C3.66666 3.18043 3.85981 2.71412 4.20363 2.3703C4.54744 2.02648 5.01376 1.83333 5.49999 1.83333ZM7.33332 10.0833H14.6667V11.9167H7.33332V10.0833ZM7.33332 13.75H14.6667V15.5833H7.33332V13.75Z" fill="#06A689"/>
</svg>
