<svg width="24" height="24" viewBox="0 0 24 24" fill="none" xmlns="http://www.w3.org/2000/svg">
<path d="M4.02225 21C4.10505 21 4.18786 20.9898 4.26964 20.9693L8.35875 19.946C8.53867 19.901 8.70325 19.8078 8.8341 19.6768L21.4009 7.09716C21.7874 6.71035 22 6.19664 22 5.65019C22 5.10373 21.7874 4.59003 21.4009 4.20321L19.7796 2.58022C19.0068 1.80659 17.6615 1.80659 16.8886 2.58022L4.32178 15.1599C4.19099 15.291 4.09809 15.4551 4.05292 15.6347L3.03064 19.728C2.99288 19.8789 2.98998 20.0364 3.02216 20.1886C3.05434 20.3408 3.12075 20.4836 3.21635 20.6062C3.31195 20.7289 3.43422 20.8281 3.57387 20.8963C3.71351 20.9645 3.86686 21 4.02225 21V21ZM18.3341 4.0272L19.9554 5.65019L18.3341 7.27317L16.7128 5.65019L18.3341 4.0272V4.0272ZM5.96764 16.4063L15.2673 7.09716L16.8886 8.72015L7.58795 18.0293L5.42686 18.5696L5.96764 16.4063V16.4063Z" fill="#A1ACB1"/>
</svg>
