<svg width="16" height="18" viewBox="0 0 16 18" fill="none" xmlns="http://www.w3.org/2000/svg">
<path d="M2.16667 17.3335H13.8333C14.7525 17.3335 15.5 16.586 15.5 15.6669V8.16686C15.5001 8.05741 15.4786 7.94902 15.4367 7.84791C15.3948 7.7468 15.3333 7.65497 15.2558 7.57769L8.58917 0.911021C8.51184 0.833567 8.42001 0.772118 8.31891 0.730193C8.21782 0.688267 8.10945 0.666687 8 0.666687C7.89056 0.666687 7.78219 0.688267 7.68109 0.730193C7.57999 0.772118 7.48816 0.833567 7.41083 0.911021L0.744167 7.57769C0.666669 7.65497 0.605203 7.7468 0.563301 7.84791C0.5214 7.94902 0.499887 8.05741 0.5 8.16686V15.6669C0.5 16.586 1.2475 17.3335 2.16667 17.3335ZM6.33333 15.6669V11.5002H9.66667V15.6669H6.33333ZM2.16667 8.51186L8 2.67852L13.8333 8.51186L13.8342 15.6669H11.3333V11.5002C11.3333 10.581 10.5858 9.83352 9.66667 9.83352H6.33333C5.41417 9.83352 4.66667 10.581 4.66667 11.5002V15.6669H2.16667V8.51186Z" fill="#A1ACB1"/>
</svg>
