<svg width="24" height="24" viewBox="0 0 24 24" fill="none" xmlns="http://www.w3.org/2000/svg">
<path d="M6.99951 6C7.26468 6 7.519 5.89464 7.7065 5.70711C7.89401 5.51957 7.99935 5.26522 7.99935 5C7.99935 4.73478 7.89401 4.48043 7.7065 4.29289C7.519 4.10536 7.26468 4 6.99951 4H4.99984C4.73466 4 4.48035 4.10536 4.29285 4.29289C4.10534 4.48043 4 4.73478 4 5V19C4 19.2652 4.10534 19.5196 4.29285 19.7071C4.48035 19.8946 4.73466 20 4.99984 20H6.99951C7.26468 20 7.519 19.8946 7.7065 19.7071C7.89401 19.5196 7.99935 19.2652 7.99935 19C7.99935 18.7348 7.89401 18.4804 7.7065 18.2929C7.519 18.1054 7.26468 18 6.99951 18H5.99967V6H6.99951ZM20.8173 11.42L17.9977 7.42C17.8448 7.20441 17.6128 7.05814 17.3523 7.01317C17.0919 6.9682 16.8243 7.02818 16.6079 7.18C16.4998 7.25579 16.4078 7.35224 16.3371 7.46381C16.2664 7.57537 16.2186 7.69982 16.1963 7.82998C16.1739 7.96015 16.1776 8.09344 16.2071 8.22217C16.2366 8.3509 16.2913 8.47252 16.368 8.58L18.0877 11H9.99902C9.73385 11 9.47954 11.1054 9.29203 11.2929C9.10452 11.4804 8.99918 11.7348 8.99918 12C8.99918 12.2652 9.10452 12.5196 9.29203 12.7071C9.47954 12.8946 9.73385 13 9.99902 13H17.9977L16.198 15.4C16.1192 15.5051 16.0619 15.6246 16.0293 15.7518C15.9967 15.879 15.9895 16.0114 16.0081 16.1414C16.0267 16.2714 16.0707 16.3965 16.1375 16.5095C16.2044 16.6225 16.2929 16.7212 16.398 16.8C16.571 16.9298 16.7815 17 16.9979 17C17.1531 17 17.3062 16.9639 17.445 16.8944C17.5839 16.825 17.7046 16.7242 17.7977 16.6L20.7973 12.6C20.9253 12.4309 20.9963 12.2254 20.9999 12.0133C21.0035 11.8011 20.9395 11.5934 20.8173 11.42Z" fill="#A1ACB1"/>
</svg>
