<svg width="15" height="15" viewBox="0 0 15 15" fill="none" xmlns="http://www.w3.org/2000/svg">
<path d="M6.59398 12.6873C7.94606 12.687 9.25918 12.2344 10.3243 11.4015L13.6729 14.75L14.75 13.6729L11.4014 10.3245C12.2347 9.25937 12.6876 7.94601 12.688 6.59365C12.688 3.23376 9.95404 0.5 6.59398 0.5C3.23391 0.5 0.5 3.23376 0.5 6.59365C0.5 9.95354 3.23391 12.6873 6.59398 12.6873ZM6.59398 2.02341C9.1146 2.02341 11.1645 4.07316 11.1645 6.59365C11.1645 9.11414 9.1146 11.1639 6.59398 11.1639C4.07335 11.1639 2.02349 9.11414 2.02349 6.59365C2.02349 4.07316 4.07335 2.02341 6.59398 2.02341Z" fill="#A1ACB1"/>
</svg>
