<svg width="22" height="17" viewBox="0 0 22 17" fill="none" xmlns="http://www.w3.org/2000/svg">
<path d="M11.3154 8.72C11.8497 8.25813 12.2782 7.68688 12.5719 7.04502C12.8657 6.40316 13.0177 5.70571 13.0177 5C13.0177 3.67392 12.4902 2.40215 11.5512 1.46447C10.6123 0.526784 9.33876 1.78911e-07 8.01088 1.78911e-07C6.68299 1.78911e-07 5.40949 0.526784 4.47054 1.46447C3.53158 2.40215 3.00408 3.67392 3.00408 5C3.00407 5.70571 3.15609 6.40316 3.44981 7.04502C3.74353 7.68688 4.17209 8.25813 4.70639 8.72C3.30463 9.35388 2.11534 10.3775 1.28072 11.6685C0.446101 12.9596 0.00147386 14.4633 0 16C0 16.2652 0.1055 16.5196 0.293291 16.7071C0.481083 16.8946 0.735783 17 1.00136 17C1.26694 17 1.52164 16.8946 1.70943 16.7071C1.89722 16.5196 2.00272 16.2652 2.00272 16C2.00272 14.4087 2.63572 12.8826 3.76247 11.7574C4.88922 10.6321 6.41742 10 8.01088 10C9.60434 10 11.1325 10.6321 12.2593 11.7574C13.386 12.8826 14.019 14.4087 14.019 16C14.019 16.2652 14.1245 16.5196 14.3123 16.7071C14.5001 16.8946 14.7548 17 15.0204 17C15.286 17 15.5407 16.8946 15.7285 16.7071C15.9163 16.5196 16.0218 16.2652 16.0218 16C16.0203 14.4633 15.5757 12.9596 14.741 11.6685C13.9064 10.3775 12.7171 9.35388 11.3154 8.72ZM8.01088 8C7.41673 8 6.83592 7.82405 6.3419 7.49441C5.84788 7.16476 5.46284 6.69623 5.23547 6.14805C5.0081 5.59987 4.94861 4.99667 5.06452 4.41473C5.18043 3.83279 5.46655 3.29824 5.88667 2.87868C6.3068 2.45912 6.84208 2.1734 7.42481 2.05764C8.00755 1.94189 8.61157 2.0013 9.16049 2.22836C9.70941 2.45542 10.1786 2.83994 10.5087 3.33329C10.8388 3.82664 11.015 4.40666 11.015 5C11.015 5.79565 10.6985 6.55871 10.1351 7.12132C9.57171 7.68393 8.80761 8 8.01088 8ZM17.7641 8.32C18.405 7.59933 18.8236 6.70905 18.9696 5.75634C19.1156 4.80362 18.9827 3.82907 18.587 2.95C18.1913 2.07093 17.5496 1.3248 16.7392 0.801423C15.9288 0.27805 14.9842 -0.0002576 14.019 1.78911e-07C13.7535 1.78911e-07 13.4988 0.105357 13.311 0.292893C13.1232 0.48043 13.0177 0.734784 13.0177 1C13.0177 1.26522 13.1232 1.51957 13.311 1.70711C13.4988 1.89464 13.7535 2 14.019 2C14.8158 2 15.5799 2.31607 16.1432 2.87868C16.7066 3.44129 17.0231 4.20435 17.0231 5C17.0217 5.52524 16.8822 6.0409 16.6186 6.49542C16.355 6.94994 15.9766 7.32738 15.5211 7.59C15.3726 7.67552 15.2486 7.79766 15.1609 7.94474C15.0733 8.09182 15.0249 8.2589 15.0204 8.43C15.0162 8.59976 15.0554 8.7678 15.1342 8.91826C15.213 9.06872 15.329 9.19665 15.471 9.29L15.8615 9.55L15.9917 9.62C17.1987 10.1917 18.217 11.096 18.9267 12.2263C19.6363 13.3566 20.0077 14.6659 19.9972 16C19.9972 16.2652 20.1027 16.5196 20.2904 16.7071C20.4782 16.8946 20.7329 17 20.9985 17C21.2641 17 21.5188 16.8946 21.7066 16.7071C21.8944 16.5196 21.9999 16.2652 21.9999 16C22.0081 14.4654 21.6232 12.9543 20.8818 11.6101C20.1405 10.2659 19.0672 9.13331 17.7641 8.32Z" fill="#A1ACB1"/>
</svg>
