<svg width="44" height="44" viewBox="0 0 44 44" fill="none" xmlns="http://www.w3.org/2000/svg">
<circle opacity="0.15" cx="22" cy="22" r="22" fill="#3783F5"/>
<path d="M21.5 29C21.3686 29 21.2393 29.0533 21.1466 29.1467C21.0533 29.2393 21 29.368 21 29.5C21 29.6319 21.0533 29.7607 21.1466 29.8533C21.2393 29.9466 21.3686 30 21.5 30C21.6319 30 21.7607 29.9467 21.854 29.8533C21.9466 29.7607 22 29.6319 22 29.5C22 29.3687 21.9467 29.2393 21.854 29.1467C21.7607 29.0533 21.6319 29 21.5 29Z" fill="#3783F5"/>
<path d="M27.322 24.1094H25.2561V21.8704C25.6829 21.4267 26.041 20.9051 26.3504 20.3134C27.025 20.1993 27.6316 19.5324 27.9832 18.5496C28.4274 17.3082 28.1585 16.1979 27.3902 15.8577V15.6062C27.3902 15.2074 27.6818 12.5945 26.0434 10.7558C25.0054 9.59074 23.4918 9 21.5113 9C19.5309 9 18.0196 9.59082 16.9969 10.7561C15.3868 12.5905 15.6098 15.1945 15.6951 15.611V15.817L15.6917 15.8173C14.852 16.1099 14.5757 17.2578 15.0367 18.5469C15.394 19.5447 16.0191 20.2173 16.7037 20.3166C17.0291 20.9377 17.4024 21.4813 17.8292 21.9386V24.1094H15.7348C13.144 24.1094 11 26.1926 11 28.7475V31.1315C11 31.3931 11.1713 31.6311 11.4116 31.7423C15.1355 33.4661 18.6558 34.0001 21.5776 34C23.1156 34 24.4951 33.8519 25.6512 33.6515C29.2921 33.0204 31.5638 31.7725 31.6592 31.7197C31.8748 31.6002 32 31.3753 32 31.1315V28.7475C32 26.1926 29.913 24.1094 27.322 24.1094ZM21.5284 31.6476C20.5613 30.3912 19.4872 28.8779 18.7227 27.6159C19.4376 28.3323 20.4311 28.7775 21.5284 28.7775C22.6258 28.7775 23.6192 28.3323 24.3341 27.6159C23.5696 28.8779 22.4955 30.3912 21.5284 31.6476ZM21.5097 23.5924C22.3438 23.5924 23.122 23.3726 23.8902 22.9625V24.7889C23.8902 24.961 23.9614 25.1177 24.0689 25.2369C23.8985 26.4724 22.8248 27.4279 21.5258 27.4279C20.2535 27.4279 19.1699 26.5112 18.9668 25.3126C19.1212 25.1889 19.1951 25.0003 19.1951 24.7888V22.9988C19.9634 23.3857 20.7008 23.5924 21.5097 23.5924ZM18.0427 11.6332C18.7939 10.7814 19.9666 10.3494 21.5284 10.3494C23.0943 10.3494 24.2771 10.7838 25.0441 11.6403C25.7305 12.4069 25.9891 13.3966 26.0786 14.1797C25.549 13.4605 25.0197 12.9721 24.9755 12.9332C24.8501 12.823 24.688 12.7457 24.5201 12.7457H18.5368C18.3755 12.7457 18.2193 12.8183 18.096 12.9208C18.0538 12.9558 17.5703 13.3712 17.0646 14.0103C17.1579 13.2541 17.4111 12.3493 18.0427 11.6332ZM17.3389 18.948C17.272 18.9273 17.203 18.9171 17.1342 18.9171C17.0524 18.9171 16.9709 18.9337 16.894 18.9621C16.7712 18.8811 16.5083 18.6077 16.326 18.0979C16.2455 17.8728 16.2072 17.675 16.1929 17.5112C16.2979 17.5761 16.4218 17.7019 16.5548 17.7019C16.9328 17.7019 17.239 17.3911 17.239 17.0184C17.239 15.907 18.2421 14.6818 18.8 14.0926H24.2472C24.8108 14.6818 25.8176 15.8934 25.8176 17.0184C25.8176 17.3911 26.124 17.7019 26.502 17.7019C26.63 17.7019 26.7492 17.5715 26.8518 17.5112C26.8318 17.6534 26.795 17.9174 26.7303 18.0983C26.5466 18.6116 26.2807 18.8838 26.1591 18.9621C26.0172 18.9157 25.8627 18.9166 25.7197 18.9655C25.5405 19.0267 25.3952 19.1586 25.3182 19.3293C24.496 21.1536 23.0841 22.2428 21.5413 22.2428C19.9963 22.2428 18.5828 21.1497 17.76 19.3184C17.6801 19.1409 17.5268 19.006 17.3389 18.948ZM12.3659 28.7475C12.3659 26.9368 13.8985 25.4562 15.7348 25.4562H16.3328C16.3747 26.0455 16.7315 27.2247 18.7048 30.0805C19.4232 31.1203 20.1139 32.0627 20.548 32.6253C18.1197 32.5154 15.3537 31.9977 12.3659 30.6985V28.7475ZM30.6341 30.7184C29.8659 31.0703 28.0292 31.8684 25.4096 32.3225C24.5516 32.4713 23.5697 32.5891 22.4809 32.6324C22.9145 32.0706 23.6291 31.1237 24.3499 30.0806C26.3231 27.2247 26.6821 26.0455 26.724 25.4563H27.322C29.1583 25.4563 30.6341 26.9369 30.6341 28.7476V30.7184Z" fill="#3783F5"/>
</svg>
