<svg width="15" height="15" viewBox="0 0 15 15" fill="none" xmlns="http://www.w3.org/2000/svg">
<path d="M11.281 8.21738C11.2114 8.1477 11.1288 8.09241 11.0379 8.05469C10.9469 8.01697 10.8494 7.99755 10.7509 7.99755C10.6524 7.99755 10.5549 8.01697 10.464 8.05469C10.373 8.09241 10.2904 8.1477 10.2208 8.21738L9.02566 9.41249C8.47157 9.24755 7.43761 8.87267 6.7823 8.21738C6.12699 7.5621 5.75209 6.52818 5.58714 5.97411L6.7823 4.779C6.85199 4.70944 6.90728 4.62681 6.945 4.53585C6.98272 4.4449 7.00214 4.3474 7.00214 4.24893C7.00214 4.15046 6.98272 4.05296 6.945 3.962C6.90728 3.87104 6.85199 3.78842 6.7823 3.71885L3.78315 0.719829C3.71358 0.650143 3.63095 0.594857 3.53999 0.557136C3.44903 0.519416 3.35153 0.5 3.25306 0.5C3.15458 0.5 3.05708 0.519416 2.96612 0.557136C2.87516 0.594857 2.79253 0.650143 2.72296 0.719829L0.689537 2.75317C0.404618 3.03807 0.244164 3.42945 0.250162 3.82906C0.267407 4.89672 0.550077 8.60501 3.47274 11.5276C6.39541 14.4501 10.1039 14.732 11.1723 14.75H11.1933C11.5892 14.75 11.9633 14.5941 12.2467 14.3106L14.2802 12.2773C14.3499 12.2077 14.4051 12.1251 14.4429 12.0342C14.4806 11.9432 14.5 11.8457 14.5 11.7472C14.5 11.6488 14.4806 11.5513 14.4429 11.4603C14.4051 11.3693 14.3499 11.2867 14.2802 11.2172L11.281 8.21738ZM11.1858 13.2497C10.2501 13.234 7.04847 12.9828 4.53294 10.4666C2.00916 7.94297 1.76473 4.73027 1.74973 3.81332L3.25306 2.31006L5.192 4.24893L4.22253 5.21836C4.1344 5.30642 4.06961 5.41505 4.034 5.53443C3.99839 5.65382 3.99309 5.78019 4.01859 5.90214C4.03658 5.98836 4.47671 8.03294 5.72135 9.27754C6.966 10.5221 9.01066 10.9622 9.09689 10.9802C9.21876 11.0064 9.34527 11.0016 9.46477 10.9661C9.58427 10.9306 9.69291 10.8656 9.7807 10.777L10.7509 9.80761L12.6899 11.7465L11.1858 13.2497Z" fill="#A1ACB1"/>
</svg>
