<svg width="21" height="25" viewBox="0 0 21 25" fill="none" xmlns="http://www.w3.org/2000/svg">
<path d="M18.4952 4.01493C16.6423 1.69565 13.8094 -0.200989 10.0785 0.0171093C7.81761 0.149096 6.07162 1.75062 5.02928 3.07671C4.04486 4.32916 3.70053 6.0476 4.0229 8.06688C3.59708 8.54558 3.51627 9.41764 3.85923 10.3722C4.03911 10.8722 4.31558 11.3159 4.63786 11.6214C4.90387 11.8736 5.25952 12.0261 5.55032 12.0702C5.85407 12.6686 6.12514 13.2645 6.72562 13.7998V15.4463H4.70846C3.50143 15.4463 2.29483 16.4113 1.31126 18.0751C0.514689 19.4225 0 21.0784 0 22.2557C0 22.5068 0.147887 22.7476 0.379583 22.8542C3.77808 24.4197 7.24777 24.8942 10.184 24.8942C13.4407 24.8942 16.0409 24.3207 17.1578 24.0251C17.1582 24.0249 17.1587 24.0263 17.1587 24.0263C17.7302 24.555 18.131 24.8405 18.1878 24.8801C18.301 24.9588 18.4348 25 18.5701 25C18.6411 25 18.7126 24.9889 18.7817 24.966C18.9821 24.8995 19.1378 24.7428 19.2005 24.5443C19.2456 24.4014 20.3108 20.9972 20.781 16.7721C21.4224 11.0085 20.6533 6.71628 18.4952 4.01493ZM6.082 10.7572C5.94029 10.7135 5.78905 10.7181 5.65197 10.7687C5.53368 10.691 5.28002 10.4304 5.10409 9.94121C4.94007 9.48481 4.95577 9.14222 4.99309 8.9891C5.05897 8.96351 5.12141 8.92875 5.17709 8.88262C5.34144 8.74634 6.39784 7.84457 7.02053 6.70888C7.22135 6.9199 7.4684 7.13725 7.77198 7.35358C9.40277 8.51579 11.9214 9.09828 15.2657 9.09011C15.2858 9.26957 15.2725 9.56638 15.138 9.94096C14.9605 10.4345 14.7041 10.6953 14.5871 10.7705C14.4506 10.7266 14.3024 10.7271 14.1649 10.7738C13.9921 10.8325 13.852 10.9588 13.7777 11.1228C13.0671 12.692 11.6865 14.5243 10.1347 14.5243C8.57935 14.5243 7.19793 12.6864 6.4874 11.1126C6.41071 10.9426 6.26291 10.8131 6.082 10.7572ZM10.3122 18.7071C9.20299 18.6939 8.05677 18.0556 6.93921 16.7088H7.26081C7.62538 16.7088 8.01234 16.5493 8.01234 16.1916V15.0589C8.69859 15.5278 9.37738 15.8199 10.1805 15.8199C10.9693 15.8199 11.679 15.5376 12.3363 15.0831C12.4824 15.9508 12.6814 16.7616 12.9378 17.5144C12.5453 17.906 11.5646 18.7071 10.3122 18.7071ZM10.3084 19.9537C11.6812 19.9537 12.7763 19.3384 13.4356 18.7982C14.2189 20.5605 15.2227 21.9146 16.1066 22.9099C13.5125 23.4997 7.3393 24.4054 1.34428 21.8089C1.56268 19.8584 3.22324 16.7088 4.70846 16.7088H5.23653C6.82967 18.8974 8.54813 19.939 10.3084 19.9537ZM13.4907 14.011C14.0029 13.4224 14.4395 12.7456 14.7841 12.066C14.8975 12.0461 15.0116 12.0096 15.1246 11.9567C15.6431 11.7136 16.1135 11.1212 16.3829 10.3721C16.8276 9.13489 16.5626 8.03296 15.7527 7.75198C12.017 7.90088 9.61628 7.00947 8.67037 6.37891C7.68903 5.72495 7.48633 5.09734 7.46454 5.01847C7.41032 4.68682 7.10811 4.46342 6.76593 4.48917C6.42143 4.51451 6.15757 4.81005 6.15757 5.14894C6.15757 5.7231 5.70602 6.41671 5.23276 6.97655C5.17314 5.71308 5.45733 4.65323 6.07453 3.86796C6.88817 2.83277 8.26162 1.4209 10.1567 1.31021C13.4306 1.11989 15.8857 2.84902 17.4553 4.81308C21.3943 9.74171 19.061 20.0318 18.2102 23.2077C16.8498 21.9695 14.0336 18.8046 13.4907 14.011Z" fill="#06A689"/>
</svg>
