<svg width="21" height="25" viewBox="0 0 21 25" fill="none" xmlns="http://www.w3.org/2000/svg">
<path d="M16.322 15.1094H14.2561V12.8704C14.6829 12.4267 15.041 11.9051 15.3504 11.3134C16.025 11.1993 16.6316 10.5324 16.9832 9.54958C17.4274 8.30817 17.1585 7.1979 16.3902 6.85774V6.60623C16.3902 6.20741 16.6818 3.59453 15.0434 1.75581C14.0054 0.590741 12.4918 0 10.5113 0C8.53087 0 7.01963 0.590825 5.99687 1.75606C4.38678 3.59049 4.60976 6.19453 4.69512 6.61103V6.817L4.69171 6.81726C3.85196 7.10993 3.57572 8.25783 4.0367 9.54689C4.39395 10.5447 5.01909 11.2173 5.70372 11.3166C6.02913 11.9377 6.40235 12.4813 6.82918 12.9386V15.1094H4.73482C2.14396 15.1094 0 17.1926 0 19.7475V22.1315C0 22.3931 0.171329 22.6311 0.411634 22.7423C4.13555 24.4661 7.65578 25.0001 10.5776 25C12.1156 25 13.4951 24.8519 14.6512 24.6515C18.2921 24.0204 20.5638 22.7725 20.6592 22.7197C20.8748 22.6002 21 22.3753 21 22.1315V19.7475C21 17.1926 18.913 15.1094 16.322 15.1094ZM10.5284 22.6476C9.56132 21.3912 8.48724 19.8779 7.72271 18.6159C8.43765 19.3323 9.43113 19.7775 10.5284 19.7775C11.6258 19.7775 12.6192 19.3323 13.3341 18.6159C12.5696 19.8779 11.4955 21.3912 10.5284 22.6476ZM10.5097 14.5924C11.3438 14.5924 12.122 14.3726 12.8902 13.9625V15.7889C12.8902 15.961 12.9614 16.1177 13.0689 16.2369C12.8985 17.4724 11.8248 18.4279 10.5258 18.4279C9.25349 18.4279 8.16985 17.5112 7.96677 16.3126C8.12119 16.1889 8.19512 16.0003 8.19512 15.7888V13.9988C8.96342 14.3857 9.7008 14.5924 10.5097 14.5924ZM7.04268 2.63317C7.7939 1.7814 8.96657 1.34941 10.5284 1.34941C12.0943 1.34941 13.2771 1.78375 14.0441 2.64032C14.7305 3.4069 14.9891 4.39663 15.0786 5.17971C14.549 4.46052 14.0197 3.97214 13.9755 3.93325C13.8501 3.82298 13.688 3.74571 13.5201 3.74571H7.53678C7.37552 3.74571 7.21931 3.81827 7.09604 3.92079C7.05378 3.95581 6.57027 4.37121 6.06465 5.01027C6.15787 4.25412 6.41106 3.34933 7.04268 2.63317ZM6.33893 9.94798C6.272 9.92727 6.20302 9.91709 6.13422 9.91709C6.05244 9.91709 5.97091 9.93367 5.894 9.96212C5.77124 9.88115 5.50832 9.60766 5.32598 9.0979C5.24548 8.87281 5.20723 8.675 5.19289 8.5112C5.29789 8.57609 5.42176 8.70194 5.55476 8.70194C5.93276 8.70194 6.23905 8.39108 6.23905 8.01835C6.23905 6.90699 7.2421 5.68182 7.80005 5.09259H13.2472C13.8108 5.68182 14.8176 6.89335 14.8176 8.01835C14.8176 8.39108 15.124 8.70194 15.502 8.70194C15.63 8.70194 15.7492 8.57146 15.8518 8.5112C15.8318 8.65337 15.795 8.91742 15.7303 9.09832C15.5466 9.61162 15.2807 9.88384 15.1591 9.96212C15.0172 9.91574 14.8627 9.91658 14.7197 9.96549C14.5405 10.0267 14.3952 10.1586 14.3182 10.3293C13.496 12.1536 12.0841 13.2428 10.5413 13.2428C8.99628 13.2428 7.58279 12.1497 6.76004 10.3184C6.68013 10.1409 6.52682 10.006 6.33893 9.94798ZM1.36585 19.7475C1.36585 17.9368 2.89851 16.4562 4.73482 16.4562H5.33281C5.37472 17.0455 5.73155 18.2247 7.70478 21.0805C8.42322 22.1203 9.11392 23.0627 9.548 23.6253C7.11968 23.5154 4.35366 22.9977 1.36585 21.6985V19.7475ZM19.6341 21.7184C18.8659 22.0703 17.0292 22.8684 14.4096 23.3225C13.5516 23.4713 12.5697 23.5891 11.4809 23.6324C11.9145 23.0706 12.6291 22.1237 13.3499 21.0806C15.3231 18.2247 15.6821 17.0455 15.724 16.4563H16.322C18.1583 16.4563 19.6341 17.9369 19.6341 19.7476V21.7184Z" fill="#3783F5"/>
</svg>
